<mxfile host="Electron" modified="2024-04-02T00:40:42.247Z" agent="Mozilla/5.0 (Windows NT 10.0; Win64; x64) AppleWebKit/537.36 (KHTML, like Gecko) draw.io/24.1.0 Chrome/120.0.6099.109 Electron/28.1.0 Safari/537.36" etag="u7LdwLC2kKd2lI0ITzzE" version="24.1.0" type="device">
  <diagram name="Página-1" id="ucs2tx_-ubs_GCZoJyIw">
    <mxGraphModel dx="1235" dy="731" grid="1" gridSize="10" guides="1" tooltips="1" connect="1" arrows="1" fold="1" page="1" pageScale="1" pageWidth="1169" pageHeight="827" background="none" math="0" shadow="0">
      <root>
        <mxCell id="0" />
        <mxCell id="1" parent="0" />
        <mxCell id="LkowzmmE9gGvpLw_FoiP-20" value="" style="rounded=0;whiteSpace=wrap;html=1;fontColor=default;labelBackgroundColor=none;fillColor=none;strokeWidth=3;labelPosition=center;verticalLabelPosition=top;align=left;verticalAlign=bottom;spacingBottom=3;spacingTop=0;horizontal=1;spacingRight=0;spacingLeft=0;fontStyle=1;fontFamily=Trebuchet MS;shadow=0;fontSize=16;spacing=0;opacity=30;textOpacity=10;dashed=1;" parent="1" vertex="1">
          <mxGeometry x="760" y="265.1" width="260" height="318.4" as="geometry" />
        </mxCell>
        <mxCell id="LkowzmmE9gGvpLw_FoiP-7" value="" style="rounded=0;whiteSpace=wrap;html=1;fontColor=default;labelBackgroundColor=none;fillColor=none;strokeWidth=3;labelPosition=center;verticalLabelPosition=top;align=left;verticalAlign=bottom;spacingBottom=3;spacingTop=0;horizontal=1;spacingRight=0;spacingLeft=0;fontStyle=1;fontFamily=Trebuchet MS;shadow=0;fontSize=16;spacing=0;opacity=30;textOpacity=10;dashed=1;" parent="1" vertex="1">
          <mxGeometry x="270" y="359" width="160" height="311" as="geometry" />
        </mxCell>
        <mxCell id="LkowzmmE9gGvpLw_FoiP-8" style="edgeStyle=orthogonalEdgeStyle;rounded=1;orthogonalLoop=1;jettySize=auto;html=1;exitX=1;exitY=0.5;exitDx=0;exitDy=0;exitPerimeter=0;entryX=0;entryY=0.5;entryDx=0;entryDy=0;shadow=0;curved=0;fontFamily=Trebuchet MS;strokeWidth=3;" parent="1" source="LkowzmmE9gGvpLw_FoiP-1" target="LkowzmmE9gGvpLw_FoiP-2" edge="1">
          <mxGeometry relative="1" as="geometry">
            <Array as="points">
              <mxPoint x="240" y="409" />
              <mxPoint x="240" y="170" />
            </Array>
          </mxGeometry>
        </mxCell>
        <mxCell id="LkowzmmE9gGvpLw_FoiP-9" style="edgeStyle=orthogonalEdgeStyle;rounded=1;orthogonalLoop=1;jettySize=auto;html=1;exitX=1;exitY=0.5;exitDx=0;exitDy=0;exitPerimeter=0;entryX=0;entryY=0.5;entryDx=0;entryDy=0;shadow=0;curved=0;fontFamily=Trebuchet MS;strokeWidth=3;" parent="1" source="LkowzmmE9gGvpLw_FoiP-1" target="LkowzmmE9gGvpLw_FoiP-4" edge="1">
          <mxGeometry relative="1" as="geometry">
            <mxPoint x="272" y="479" as="targetPoint" />
            <Array as="points">
              <mxPoint x="230" y="409" />
              <mxPoint x="230" y="409" />
            </Array>
          </mxGeometry>
        </mxCell>
        <mxCell id="LkowzmmE9gGvpLw_FoiP-10" style="edgeStyle=orthogonalEdgeStyle;rounded=1;orthogonalLoop=1;jettySize=auto;html=1;exitX=1;exitY=0.5;exitDx=0;exitDy=0;exitPerimeter=0;entryX=0;entryY=0.5;entryDx=0;entryDy=0;shadow=0;curved=0;fontFamily=Trebuchet MS;strokeWidth=3;" parent="1" source="LkowzmmE9gGvpLw_FoiP-1" target="LkowzmmE9gGvpLw_FoiP-5" edge="1">
          <mxGeometry relative="1" as="geometry">
            <Array as="points">
              <mxPoint x="240" y="410" />
              <mxPoint x="240" y="584" />
            </Array>
          </mxGeometry>
        </mxCell>
        <mxCell id="LkowzmmE9gGvpLw_FoiP-1" value="&lt;font face=&quot;Trebuchet MS&quot; style=&quot;font-size: 16px;&quot;&gt;&lt;span style=&quot;font-size: 16px;&quot;&gt;Dados&lt;/span&gt; de composição de reservatórios reais&lt;/font&gt;" style="shape=cylinder3;whiteSpace=wrap;html=1;boundedLbl=1;backgroundOutline=1;size=15;labelPosition=center;verticalLabelPosition=bottom;align=center;verticalAlign=top;fontFamily=Trebuchet MS;shadow=0;fontSize=16;fontStyle=1;strokeWidth=3;" parent="1" vertex="1">
          <mxGeometry x="60" y="369" width="60" height="80" as="geometry" />
        </mxCell>
        <mxCell id="LkowzmmE9gGvpLw_FoiP-47" style="edgeStyle=orthogonalEdgeStyle;rounded=1;orthogonalLoop=1;jettySize=auto;html=1;exitX=1;exitY=0.5;exitDx=0;exitDy=0;entryX=0;entryY=0.5;entryDx=0;entryDy=0;curved=0;fontFamily=Trebuchet MS;shadow=0;strokeWidth=3;" parent="1" source="LkowzmmE9gGvpLw_FoiP-2" target="LkowzmmE9gGvpLw_FoiP-42" edge="1">
          <mxGeometry relative="1" as="geometry">
            <Array as="points">
              <mxPoint x="460" y="170" />
              <mxPoint x="460" y="409" />
            </Array>
          </mxGeometry>
        </mxCell>
        <mxCell id="LkowzmmE9gGvpLw_FoiP-2" value="Normalização das composições&lt;div&gt;&lt;br&gt;&lt;/div&gt;" style="rounded=1;whiteSpace=wrap;html=1;labelPosition=center;verticalLabelPosition=bottom;align=center;verticalAlign=top;fontFamily=Trebuchet MS;shadow=0;fontSize=16;fontStyle=1;strokeWidth=3;" parent="1" vertex="1">
          <mxGeometry x="320" y="140" width="60" height="60" as="geometry" />
        </mxCell>
        <mxCell id="LkowzmmE9gGvpLw_FoiP-46" style="edgeStyle=orthogonalEdgeStyle;rounded=1;orthogonalLoop=1;jettySize=auto;html=1;exitX=1;exitY=0.5;exitDx=0;exitDy=0;curved=0;fontFamily=Trebuchet MS;shadow=0;strokeWidth=3;" parent="1" source="LkowzmmE9gGvpLw_FoiP-4" target="LkowzmmE9gGvpLw_FoiP-42" edge="1">
          <mxGeometry relative="1" as="geometry" />
        </mxCell>
        <mxCell id="LkowzmmE9gGvpLw_FoiP-4" value="MLE utilizando Distribuição Dirichlet" style="rounded=1;whiteSpace=wrap;html=1;labelPosition=center;verticalLabelPosition=bottom;align=center;verticalAlign=top;fontFamily=Trebuchet MS;shadow=0;fontSize=16;fontStyle=1;strokeWidth=3;" parent="1" vertex="1">
          <mxGeometry x="321" y="379" width="60" height="60" as="geometry" />
        </mxCell>
        <mxCell id="LkowzmmE9gGvpLw_FoiP-49" style="edgeStyle=orthogonalEdgeStyle;rounded=1;orthogonalLoop=1;jettySize=auto;html=1;exitX=1;exitY=0.5;exitDx=0;exitDy=0;entryX=0;entryY=0.5;entryDx=0;entryDy=0;curved=0;fontFamily=Trebuchet MS;shadow=0;strokeWidth=3;" parent="1" source="LkowzmmE9gGvpLw_FoiP-5" target="LkowzmmE9gGvpLw_FoiP-42" edge="1">
          <mxGeometry relative="1" as="geometry">
            <Array as="points">
              <mxPoint x="460" y="584" />
              <mxPoint x="460" y="409" />
            </Array>
          </mxGeometry>
        </mxCell>
        <mxCell id="LkowzmmE9gGvpLw_FoiP-5" value="WGAN&lt;br style=&quot;font-size: 16px;&quot;&gt;DPM" style="rounded=1;whiteSpace=wrap;html=1;labelPosition=center;verticalLabelPosition=bottom;align=center;verticalAlign=top;fontFamily=Trebuchet MS;shadow=0;fontSize=16;fontStyle=1;strokeWidth=3;" parent="1" vertex="1">
          <mxGeometry x="321" y="553.5" width="60" height="60" as="geometry" />
        </mxCell>
        <mxCell id="LkowzmmE9gGvpLw_FoiP-16" value="&lt;ul&gt;&lt;li&gt;mais de 400 amostras&lt;/li&gt;&lt;li&gt;24 features&lt;/li&gt;&lt;/ul&gt;" style="text;html=1;align=left;verticalAlign=middle;whiteSpace=wrap;rounded=0;fontFamily=Trebuchet MS;shadow=0;fontSize=16;fontStyle=1" parent="1" vertex="1">
          <mxGeometry x="25" y="558.5" width="220" height="50" as="geometry" />
        </mxCell>
        <mxCell id="LkowzmmE9gGvpLw_FoiP-21" value="Classificação" style="rounded=1;whiteSpace=wrap;html=1;labelPosition=center;verticalLabelPosition=top;align=center;verticalAlign=bottom;fontFamily=Trebuchet MS;shadow=0;fontSize=16;fontStyle=1;strokeWidth=3;" parent="1" vertex="1">
          <mxGeometry x="820" y="463.5" width="60" height="60" as="geometry" />
        </mxCell>
        <mxCell id="LkowzmmE9gGvpLw_FoiP-33" value="&lt;span style=&quot;font-size: 16px;&quot;&gt;Análise Quantitativa&lt;/span&gt;" style="text;html=1;align=center;verticalAlign=middle;whiteSpace=wrap;rounded=0;fontFamily=Trebuchet MS;shadow=0;fontSize=16;fontStyle=1" parent="1" vertex="1">
          <mxGeometry x="1080" y="470" width="60" height="30" as="geometry" />
        </mxCell>
        <mxCell id="nC10HTdiC2yC7m7H2YE5-33" style="edgeStyle=orthogonalEdgeStyle;rounded=1;orthogonalLoop=1;jettySize=auto;html=1;exitX=1;exitY=0.5;exitDx=0;exitDy=0;entryX=0;entryY=0.5;entryDx=0;entryDy=0;curved=0;strokeWidth=3;" edge="1" parent="1" source="LkowzmmE9gGvpLw_FoiP-42" target="LkowzmmE9gGvpLw_FoiP-32">
          <mxGeometry relative="1" as="geometry">
            <Array as="points">
              <mxPoint x="780" y="410" />
              <mxPoint x="780" y="332" />
            </Array>
          </mxGeometry>
        </mxCell>
        <mxCell id="nC10HTdiC2yC7m7H2YE5-34" style="edgeStyle=orthogonalEdgeStyle;rounded=1;orthogonalLoop=1;jettySize=auto;html=1;exitX=1;exitY=0.5;exitDx=0;exitDy=0;entryX=0;entryY=0.5;entryDx=0;entryDy=0;curved=0;strokeWidth=3;" edge="1" parent="1" source="LkowzmmE9gGvpLw_FoiP-42" target="LkowzmmE9gGvpLw_FoiP-21">
          <mxGeometry relative="1" as="geometry">
            <Array as="points">
              <mxPoint x="780" y="410" />
              <mxPoint x="780" y="493" />
            </Array>
          </mxGeometry>
        </mxCell>
        <mxCell id="LkowzmmE9gGvpLw_FoiP-42" value="Amostra &lt;br style=&quot;font-size: 16px;&quot;&gt;P e T" style="rounded=1;whiteSpace=wrap;html=1;labelPosition=center;verticalLabelPosition=bottom;align=center;verticalAlign=top;fontFamily=Trebuchet MS;shadow=0;fontSize=16;fontStyle=1;strokeWidth=3;" parent="1" vertex="1">
          <mxGeometry x="575" y="380" width="60" height="60" as="geometry" />
        </mxCell>
        <mxCell id="LkowzmmE9gGvpLw_FoiP-67" value="" style="group;fontFamily=Trebuchet MS;shadow=0;" parent="1" vertex="1" connectable="0">
          <mxGeometry x="336.75" y="559" width="26.5" height="50" as="geometry" />
        </mxCell>
        <mxCell id="LkowzmmE9gGvpLw_FoiP-51" value="" style="ellipse;whiteSpace=wrap;html=1;aspect=fixed;fontFamily=Trebuchet MS;shadow=0;" parent="LkowzmmE9gGvpLw_FoiP-67" vertex="1">
          <mxGeometry width="9.906542056074766" height="9.906542056074766" as="geometry" />
        </mxCell>
        <mxCell id="LkowzmmE9gGvpLw_FoiP-52" value="" style="ellipse;whiteSpace=wrap;html=1;aspect=fixed;fontFamily=Trebuchet MS;shadow=0;" parent="LkowzmmE9gGvpLw_FoiP-67" vertex="1">
          <mxGeometry y="18.75" width="9.906542056074766" height="9.906542056074766" as="geometry" />
        </mxCell>
        <mxCell id="LkowzmmE9gGvpLw_FoiP-53" value="" style="ellipse;whiteSpace=wrap;html=1;aspect=fixed;fontFamily=Trebuchet MS;shadow=0;" parent="LkowzmmE9gGvpLw_FoiP-67" vertex="1">
          <mxGeometry y="37.5" width="9.906542056074766" height="9.906542056074766" as="geometry" />
        </mxCell>
        <mxCell id="LkowzmmE9gGvpLw_FoiP-54" value="" style="ellipse;whiteSpace=wrap;html=1;aspect=fixed;fontFamily=Trebuchet MS;shadow=0;" parent="LkowzmmE9gGvpLw_FoiP-67" vertex="1">
          <mxGeometry x="16.59345794392523" y="6.25" width="9.906542056074766" height="9.906542056074766" as="geometry" />
        </mxCell>
        <mxCell id="LkowzmmE9gGvpLw_FoiP-58" style="rounded=0;orthogonalLoop=1;jettySize=auto;html=1;exitX=1;exitY=0.5;exitDx=0;exitDy=0;entryX=0;entryY=0;entryDx=0;entryDy=0;strokeColor=default;endSize=2;endArrow=none;endFill=0;fontFamily=Trebuchet MS;shadow=0;" parent="LkowzmmE9gGvpLw_FoiP-67" source="LkowzmmE9gGvpLw_FoiP-51" target="LkowzmmE9gGvpLw_FoiP-54" edge="1">
          <mxGeometry relative="1" as="geometry" />
        </mxCell>
        <mxCell id="LkowzmmE9gGvpLw_FoiP-63" style="rounded=0;orthogonalLoop=1;jettySize=auto;html=1;exitX=1;exitY=0;exitDx=0;exitDy=0;entryX=0;entryY=1;entryDx=0;entryDy=0;endSize=2;endArrow=none;endFill=0;fontFamily=Trebuchet MS;shadow=0;" parent="LkowzmmE9gGvpLw_FoiP-67" source="LkowzmmE9gGvpLw_FoiP-52" target="LkowzmmE9gGvpLw_FoiP-54" edge="1">
          <mxGeometry relative="1" as="geometry" />
        </mxCell>
        <mxCell id="LkowzmmE9gGvpLw_FoiP-65" style="rounded=0;orthogonalLoop=1;jettySize=auto;html=1;exitX=1;exitY=0;exitDx=0;exitDy=0;entryX=0.5;entryY=1;entryDx=0;entryDy=0;endSize=2;endArrow=none;endFill=0;fontFamily=Trebuchet MS;shadow=0;" parent="LkowzmmE9gGvpLw_FoiP-67" source="LkowzmmE9gGvpLw_FoiP-53" target="LkowzmmE9gGvpLw_FoiP-54" edge="1">
          <mxGeometry relative="1" as="geometry" />
        </mxCell>
        <mxCell id="LkowzmmE9gGvpLw_FoiP-55" value="" style="ellipse;whiteSpace=wrap;html=1;aspect=fixed;fontFamily=Trebuchet MS;shadow=0;" parent="LkowzmmE9gGvpLw_FoiP-67" vertex="1">
          <mxGeometry x="16.59345794392523" y="31.25" width="9.906542056074766" height="9.906542056074766" as="geometry" />
        </mxCell>
        <mxCell id="LkowzmmE9gGvpLw_FoiP-59" style="rounded=0;orthogonalLoop=1;jettySize=auto;html=1;exitX=1;exitY=1;exitDx=0;exitDy=0;entryX=0.5;entryY=0;entryDx=0;entryDy=0;endSize=2;endArrow=none;endFill=0;fontFamily=Trebuchet MS;shadow=0;" parent="LkowzmmE9gGvpLw_FoiP-67" source="LkowzmmE9gGvpLw_FoiP-51" target="LkowzmmE9gGvpLw_FoiP-55" edge="1">
          <mxGeometry relative="1" as="geometry" />
        </mxCell>
        <mxCell id="LkowzmmE9gGvpLw_FoiP-64" style="rounded=0;orthogonalLoop=1;jettySize=auto;html=1;entryX=0;entryY=0;entryDx=0;entryDy=0;endSize=2;endArrow=none;endFill=0;fontFamily=Trebuchet MS;shadow=0;exitX=1;exitY=1;exitDx=0;exitDy=0;" parent="LkowzmmE9gGvpLw_FoiP-67" source="LkowzmmE9gGvpLw_FoiP-52" target="LkowzmmE9gGvpLw_FoiP-55" edge="1">
          <mxGeometry relative="1" as="geometry">
            <mxPoint x="13.25" y="30" as="sourcePoint" />
          </mxGeometry>
        </mxCell>
        <mxCell id="LkowzmmE9gGvpLw_FoiP-66" style="rounded=0;orthogonalLoop=1;jettySize=auto;html=1;exitX=1;exitY=0.5;exitDx=0;exitDy=0;entryX=0;entryY=1;entryDx=0;entryDy=0;endSize=2;endArrow=none;endFill=0;fontFamily=Trebuchet MS;shadow=0;" parent="LkowzmmE9gGvpLw_FoiP-67" source="LkowzmmE9gGvpLw_FoiP-53" target="LkowzmmE9gGvpLw_FoiP-55" edge="1">
          <mxGeometry relative="1" as="geometry">
            <mxPoint x="14.85981308411215" y="43.720930232558146" as="targetPoint" />
          </mxGeometry>
        </mxCell>
        <mxCell id="LkowzmmE9gGvpLw_FoiP-98" value="" style="group;fontFamily=Trebuchet MS;shadow=0;fontSize=14;fontStyle=1;strokeWidth=3;" parent="1" vertex="1" connectable="0">
          <mxGeometry x="330" y="385" width="40" height="48" as="geometry" />
        </mxCell>
        <mxCell id="LkowzmmE9gGvpLw_FoiP-95" value="" style="endArrow=none;html=1;rounded=0;fontFamily=Trebuchet MS;shadow=0;" parent="LkowzmmE9gGvpLw_FoiP-98" edge="1">
          <mxGeometry width="50" height="50" relative="1" as="geometry">
            <mxPoint y="47.813333333333354" as="sourcePoint" />
            <mxPoint x="40" y="48" as="targetPoint" />
          </mxGeometry>
        </mxCell>
        <mxCell id="LkowzmmE9gGvpLw_FoiP-97" value="" style="curved=1;endArrow=none;html=1;rounded=0;endFill=0;strokeWidth=3;fontFamily=Trebuchet MS;shadow=0;" parent="LkowzmmE9gGvpLw_FoiP-98" edge="1">
          <mxGeometry width="50" height="50" relative="1" as="geometry">
            <mxPoint y="44.44444444444445" as="sourcePoint" />
            <mxPoint x="40" y="44.44444444444445" as="targetPoint" />
            <Array as="points">
              <mxPoint x="5" />
              <mxPoint x="20" y="35.55555555555555" />
              <mxPoint x="30" y="22.222222222222225" />
              <mxPoint x="35" y="35.55555555555555" />
            </Array>
          </mxGeometry>
        </mxCell>
        <mxCell id="LkowzmmE9gGvpLw_FoiP-131" value="" style="group;fontFamily=Trebuchet MS;shadow=0;" parent="1" vertex="1" connectable="0">
          <mxGeometry x="836" y="469.5" width="26.5" height="50" as="geometry" />
        </mxCell>
        <mxCell id="LkowzmmE9gGvpLw_FoiP-132" value="" style="ellipse;whiteSpace=wrap;html=1;aspect=fixed;fontFamily=Trebuchet MS;shadow=0;" parent="LkowzmmE9gGvpLw_FoiP-131" vertex="1">
          <mxGeometry width="9.906542056074766" height="9.906542056074766" as="geometry" />
        </mxCell>
        <mxCell id="LkowzmmE9gGvpLw_FoiP-133" value="" style="ellipse;whiteSpace=wrap;html=1;aspect=fixed;fontFamily=Trebuchet MS;shadow=0;" parent="LkowzmmE9gGvpLw_FoiP-131" vertex="1">
          <mxGeometry y="18.75" width="9.906542056074766" height="9.906542056074766" as="geometry" />
        </mxCell>
        <mxCell id="LkowzmmE9gGvpLw_FoiP-134" value="" style="ellipse;whiteSpace=wrap;html=1;aspect=fixed;fontFamily=Trebuchet MS;shadow=0;" parent="LkowzmmE9gGvpLw_FoiP-131" vertex="1">
          <mxGeometry y="37.5" width="9.906542056074766" height="9.906542056074766" as="geometry" />
        </mxCell>
        <mxCell id="LkowzmmE9gGvpLw_FoiP-135" value="" style="ellipse;whiteSpace=wrap;html=1;aspect=fixed;fontFamily=Trebuchet MS;shadow=0;" parent="LkowzmmE9gGvpLw_FoiP-131" vertex="1">
          <mxGeometry x="16.59345794392523" y="6.25" width="9.906542056074766" height="9.906542056074766" as="geometry" />
        </mxCell>
        <mxCell id="LkowzmmE9gGvpLw_FoiP-136" style="rounded=0;orthogonalLoop=1;jettySize=auto;html=1;exitX=1;exitY=0.5;exitDx=0;exitDy=0;entryX=0;entryY=0;entryDx=0;entryDy=0;strokeColor=default;endSize=2;endArrow=none;endFill=0;fontFamily=Trebuchet MS;shadow=0;" parent="LkowzmmE9gGvpLw_FoiP-131" source="LkowzmmE9gGvpLw_FoiP-132" target="LkowzmmE9gGvpLw_FoiP-135" edge="1">
          <mxGeometry relative="1" as="geometry" />
        </mxCell>
        <mxCell id="LkowzmmE9gGvpLw_FoiP-137" style="rounded=0;orthogonalLoop=1;jettySize=auto;html=1;exitX=1;exitY=0;exitDx=0;exitDy=0;entryX=0;entryY=1;entryDx=0;entryDy=0;endSize=2;endArrow=none;endFill=0;fontFamily=Trebuchet MS;shadow=0;" parent="LkowzmmE9gGvpLw_FoiP-131" source="LkowzmmE9gGvpLw_FoiP-133" target="LkowzmmE9gGvpLw_FoiP-135" edge="1">
          <mxGeometry relative="1" as="geometry" />
        </mxCell>
        <mxCell id="LkowzmmE9gGvpLw_FoiP-138" style="rounded=0;orthogonalLoop=1;jettySize=auto;html=1;exitX=1;exitY=0;exitDx=0;exitDy=0;entryX=0.5;entryY=1;entryDx=0;entryDy=0;endSize=2;endArrow=none;endFill=0;fontFamily=Trebuchet MS;shadow=0;" parent="LkowzmmE9gGvpLw_FoiP-131" source="LkowzmmE9gGvpLw_FoiP-134" target="LkowzmmE9gGvpLw_FoiP-135" edge="1">
          <mxGeometry relative="1" as="geometry" />
        </mxCell>
        <mxCell id="LkowzmmE9gGvpLw_FoiP-139" value="" style="ellipse;whiteSpace=wrap;html=1;aspect=fixed;fontFamily=Trebuchet MS;shadow=0;" parent="LkowzmmE9gGvpLw_FoiP-131" vertex="1">
          <mxGeometry x="16.59345794392523" y="31.25" width="9.906542056074766" height="9.906542056074766" as="geometry" />
        </mxCell>
        <mxCell id="LkowzmmE9gGvpLw_FoiP-140" style="rounded=0;orthogonalLoop=1;jettySize=auto;html=1;exitX=1;exitY=1;exitDx=0;exitDy=0;entryX=0.5;entryY=0;entryDx=0;entryDy=0;endSize=2;endArrow=none;endFill=0;fontFamily=Trebuchet MS;shadow=0;" parent="LkowzmmE9gGvpLw_FoiP-131" source="LkowzmmE9gGvpLw_FoiP-132" target="LkowzmmE9gGvpLw_FoiP-139" edge="1">
          <mxGeometry relative="1" as="geometry" />
        </mxCell>
        <mxCell id="LkowzmmE9gGvpLw_FoiP-141" style="rounded=0;orthogonalLoop=1;jettySize=auto;html=1;endSize=2;endArrow=none;endFill=0;fontFamily=Trebuchet MS;shadow=0;exitX=1;exitY=1;exitDx=0;exitDy=0;" parent="LkowzmmE9gGvpLw_FoiP-131" source="LkowzmmE9gGvpLw_FoiP-133" target="LkowzmmE9gGvpLw_FoiP-134" edge="1">
          <mxGeometry relative="1" as="geometry">
            <mxPoint x="13.25" y="30" as="sourcePoint" />
          </mxGeometry>
        </mxCell>
        <mxCell id="LkowzmmE9gGvpLw_FoiP-142" style="rounded=0;orthogonalLoop=1;jettySize=auto;html=1;exitX=1;exitY=0.5;exitDx=0;exitDy=0;entryX=0;entryY=1;entryDx=0;entryDy=0;endSize=2;endArrow=none;endFill=0;fontFamily=Trebuchet MS;shadow=0;" parent="LkowzmmE9gGvpLw_FoiP-131" source="LkowzmmE9gGvpLw_FoiP-134" target="LkowzmmE9gGvpLw_FoiP-139" edge="1">
          <mxGeometry relative="1" as="geometry">
            <mxPoint x="14.85981308411215" y="43.720930232558146" as="targetPoint" />
          </mxGeometry>
        </mxCell>
        <mxCell id="N-hfQX3pqwfp3JEZZSVR-1" value="" style="group" parent="1" vertex="1" connectable="0">
          <mxGeometry x="1060" y="363.5" width="80" height="100" as="geometry" />
        </mxCell>
        <mxCell id="LkowzmmE9gGvpLw_FoiP-26" value="" style="shape=note;whiteSpace=wrap;html=1;backgroundOutline=1;darkOpacity=0.05;size=17;fontFamily=Trebuchet MS;shadow=0;strokeWidth=3;" parent="N-hfQX3pqwfp3JEZZSVR-1" vertex="1">
          <mxGeometry width="60" height="80" as="geometry" />
        </mxCell>
        <mxCell id="LkowzmmE9gGvpLw_FoiP-27" value="" style="shape=note;whiteSpace=wrap;html=1;backgroundOutline=1;darkOpacity=0.05;size=17;fontFamily=Trebuchet MS;shadow=0;strokeWidth=3;" parent="N-hfQX3pqwfp3JEZZSVR-1" vertex="1">
          <mxGeometry x="10" y="10" width="60" height="80" as="geometry" />
        </mxCell>
        <mxCell id="LkowzmmE9gGvpLw_FoiP-28" value="" style="shape=note;whiteSpace=wrap;html=1;backgroundOutline=1;darkOpacity=0.05;size=17;fontFamily=Trebuchet MS;shadow=0;strokeWidth=3;" parent="N-hfQX3pqwfp3JEZZSVR-1" vertex="1">
          <mxGeometry x="20" y="20" width="60" height="80" as="geometry" />
        </mxCell>
        <mxCell id="LkowzmmE9gGvpLw_FoiP-32" value="Regressão" style="rounded=1;whiteSpace=wrap;html=1;labelPosition=center;verticalLabelPosition=top;align=center;verticalAlign=bottom;fontFamily=Trebuchet MS;shadow=0;fontSize=16;fontStyle=1;strokeWidth=3;" parent="1" vertex="1">
          <mxGeometry x="820" y="303.5" width="60" height="57.599999999999994" as="geometry" />
        </mxCell>
        <mxCell id="LkowzmmE9gGvpLw_FoiP-107" value="" style="group;fontFamily=Trebuchet MS;shadow=0;" parent="1" vertex="1" connectable="0">
          <mxGeometry x="837" y="308.78" width="26.5" height="48" as="geometry" />
        </mxCell>
        <mxCell id="LkowzmmE9gGvpLw_FoiP-108" value="" style="ellipse;whiteSpace=wrap;html=1;aspect=fixed;fontFamily=Trebuchet MS;shadow=0;" parent="LkowzmmE9gGvpLw_FoiP-107" vertex="1">
          <mxGeometry width="9.510280373831774" height="9.510280373831774" as="geometry" />
        </mxCell>
        <mxCell id="LkowzmmE9gGvpLw_FoiP-109" value="" style="ellipse;whiteSpace=wrap;html=1;aspect=fixed;fontFamily=Trebuchet MS;shadow=0;" parent="LkowzmmE9gGvpLw_FoiP-107" vertex="1">
          <mxGeometry y="18" width="9.510280373831774" height="9.510280373831774" as="geometry" />
        </mxCell>
        <mxCell id="LkowzmmE9gGvpLw_FoiP-110" value="" style="ellipse;whiteSpace=wrap;html=1;aspect=fixed;fontFamily=Trebuchet MS;shadow=0;" parent="LkowzmmE9gGvpLw_FoiP-107" vertex="1">
          <mxGeometry y="36" width="9.510280373831774" height="9.510280373831774" as="geometry" />
        </mxCell>
        <mxCell id="LkowzmmE9gGvpLw_FoiP-111" value="" style="ellipse;whiteSpace=wrap;html=1;aspect=fixed;fontFamily=Trebuchet MS;shadow=0;" parent="LkowzmmE9gGvpLw_FoiP-107" vertex="1">
          <mxGeometry x="16.59345794392523" y="6" width="9.510280373831774" height="9.510280373831774" as="geometry" />
        </mxCell>
        <mxCell id="LkowzmmE9gGvpLw_FoiP-112" style="rounded=0;orthogonalLoop=1;jettySize=auto;html=1;exitX=1;exitY=0.5;exitDx=0;exitDy=0;entryX=0;entryY=0;entryDx=0;entryDy=0;strokeColor=default;endSize=2;endArrow=none;endFill=0;fontFamily=Trebuchet MS;shadow=0;" parent="LkowzmmE9gGvpLw_FoiP-107" source="LkowzmmE9gGvpLw_FoiP-108" target="LkowzmmE9gGvpLw_FoiP-111" edge="1">
          <mxGeometry relative="1" as="geometry" />
        </mxCell>
        <mxCell id="LkowzmmE9gGvpLw_FoiP-113" style="rounded=0;orthogonalLoop=1;jettySize=auto;html=1;exitX=1;exitY=0;exitDx=0;exitDy=0;entryX=0;entryY=1;entryDx=0;entryDy=0;endSize=2;endArrow=none;endFill=0;fontFamily=Trebuchet MS;shadow=0;" parent="LkowzmmE9gGvpLw_FoiP-107" source="LkowzmmE9gGvpLw_FoiP-109" target="LkowzmmE9gGvpLw_FoiP-111" edge="1">
          <mxGeometry relative="1" as="geometry" />
        </mxCell>
        <mxCell id="LkowzmmE9gGvpLw_FoiP-114" style="rounded=0;orthogonalLoop=1;jettySize=auto;html=1;exitX=1;exitY=0;exitDx=0;exitDy=0;entryX=0.5;entryY=1;entryDx=0;entryDy=0;endSize=2;endArrow=none;endFill=0;fontFamily=Trebuchet MS;shadow=0;" parent="LkowzmmE9gGvpLw_FoiP-107" source="LkowzmmE9gGvpLw_FoiP-110" target="LkowzmmE9gGvpLw_FoiP-111" edge="1">
          <mxGeometry relative="1" as="geometry" />
        </mxCell>
        <mxCell id="LkowzmmE9gGvpLw_FoiP-115" value="" style="ellipse;whiteSpace=wrap;html=1;aspect=fixed;fontFamily=Trebuchet MS;shadow=0;" parent="LkowzmmE9gGvpLw_FoiP-107" vertex="1">
          <mxGeometry x="16.59345794392523" y="30" width="9.510280373831774" height="9.510280373831774" as="geometry" />
        </mxCell>
        <mxCell id="LkowzmmE9gGvpLw_FoiP-116" style="rounded=0;orthogonalLoop=1;jettySize=auto;html=1;exitX=1;exitY=1;exitDx=0;exitDy=0;entryX=0.5;entryY=0;entryDx=0;entryDy=0;endSize=2;endArrow=none;endFill=0;fontFamily=Trebuchet MS;shadow=0;" parent="LkowzmmE9gGvpLw_FoiP-107" source="LkowzmmE9gGvpLw_FoiP-108" target="LkowzmmE9gGvpLw_FoiP-115" edge="1">
          <mxGeometry relative="1" as="geometry" />
        </mxCell>
        <mxCell id="LkowzmmE9gGvpLw_FoiP-117" style="rounded=0;orthogonalLoop=1;jettySize=auto;html=1;entryX=0;entryY=0;entryDx=0;entryDy=0;endSize=2;endArrow=none;endFill=0;fontFamily=Trebuchet MS;shadow=0;exitX=1;exitY=1;exitDx=0;exitDy=0;" parent="LkowzmmE9gGvpLw_FoiP-107" source="LkowzmmE9gGvpLw_FoiP-109" target="LkowzmmE9gGvpLw_FoiP-115" edge="1">
          <mxGeometry relative="1" as="geometry">
            <mxPoint x="13.25" y="28.799999999999997" as="sourcePoint" />
          </mxGeometry>
        </mxCell>
        <mxCell id="LkowzmmE9gGvpLw_FoiP-118" style="rounded=0;orthogonalLoop=1;jettySize=auto;html=1;exitX=1;exitY=0.5;exitDx=0;exitDy=0;entryX=0;entryY=1;entryDx=0;entryDy=0;endSize=2;endArrow=none;endFill=0;fontFamily=Trebuchet MS;shadow=0;" parent="LkowzmmE9gGvpLw_FoiP-107" source="LkowzmmE9gGvpLw_FoiP-110" target="LkowzmmE9gGvpLw_FoiP-115" edge="1">
          <mxGeometry relative="1" as="geometry">
            <mxPoint x="14.85981308411215" y="41.972093023255816" as="targetPoint" />
          </mxGeometry>
        </mxCell>
        <mxCell id="nC10HTdiC2yC7m7H2YE5-17" style="edgeStyle=orthogonalEdgeStyle;rounded=1;orthogonalLoop=1;jettySize=auto;html=1;exitX=1;exitY=0.5;exitDx=0;exitDy=0;entryX=0;entryY=0.5;entryDx=0;entryDy=0;entryPerimeter=0;curved=0;strokeWidth=3;" edge="1" parent="1" source="LkowzmmE9gGvpLw_FoiP-32" target="LkowzmmE9gGvpLw_FoiP-26">
          <mxGeometry relative="1" as="geometry">
            <Array as="points">
              <mxPoint x="910" y="332.5" />
              <mxPoint x="910" y="403.5" />
            </Array>
          </mxGeometry>
        </mxCell>
        <mxCell id="nC10HTdiC2yC7m7H2YE5-18" style="edgeStyle=orthogonalEdgeStyle;rounded=1;orthogonalLoop=1;jettySize=auto;html=1;exitX=1;exitY=0.5;exitDx=0;exitDy=0;entryX=0;entryY=0.5;entryDx=0;entryDy=0;entryPerimeter=0;curved=0;strokeWidth=3;" edge="1" parent="1" source="LkowzmmE9gGvpLw_FoiP-21" target="LkowzmmE9gGvpLw_FoiP-26">
          <mxGeometry relative="1" as="geometry">
            <Array as="points">
              <mxPoint x="910" y="493.5" />
              <mxPoint x="910" y="403.5" />
            </Array>
          </mxGeometry>
        </mxCell>
        <mxCell id="nC10HTdiC2yC7m7H2YE5-20" value="&lt;div style=&quot;font-size: 17px;&quot;&gt;{z&lt;sub style=&quot;font-size: 17px;&quot;&gt;i&lt;/sub&gt;}&lt;sub style=&quot;font-size: 17px;&quot;&gt;i=1..24&lt;/sub&gt;&lt;/div&gt;" style="text;html=1;align=left;verticalAlign=middle;whiteSpace=wrap;rounded=0;fontFamily=Trebuchet MS;shadow=0;fontSize=17;fontStyle=1" vertex="1" parent="1">
          <mxGeometry x="130" y="357.6" width="105" height="50" as="geometry" />
        </mxCell>
        <mxCell id="nC10HTdiC2yC7m7H2YE5-22" value="&lt;div style=&quot;font-size: 17px;&quot;&gt;P&lt;/div&gt;&lt;div style=&quot;font-size: 17px;&quot;&gt;T&lt;/div&gt;&lt;div style=&quot;font-size: 17px;&quot;&gt;{z&lt;sub style=&quot;font-size: 17px;&quot;&gt;i&lt;/sub&gt;}&lt;sub style=&quot;font-size: 17px;&quot;&gt;i=1..24&lt;/sub&gt;&lt;/div&gt;" style="text;html=1;align=left;verticalAlign=middle;whiteSpace=wrap;rounded=0;fontFamily=Trebuchet MS;shadow=0;fontSize=17;fontStyle=1" vertex="1" parent="1">
          <mxGeometry x="650" y="317.6" width="100" height="90" as="geometry" />
        </mxCell>
        <mxCell id="nC10HTdiC2yC7m7H2YE5-23" value="&lt;div style=&quot;font-size: 17px;&quot;&gt;{z&lt;sub style=&quot;font-size: 17px;&quot;&gt;i&lt;/sub&gt;}&lt;sub style=&quot;font-size: 17px;&quot;&gt;i=1..24&lt;/sub&gt;&lt;/div&gt;" style="text;html=1;align=left;verticalAlign=middle;whiteSpace=wrap;rounded=0;fontFamily=Trebuchet MS;shadow=0;fontSize=17;fontStyle=1" vertex="1" parent="1">
          <mxGeometry x="470" y="357.6" width="105" height="50" as="geometry" />
        </mxCell>
        <mxCell id="nC10HTdiC2yC7m7H2YE5-24" value="&lt;div style=&quot;font-size: 17px;&quot;&gt;0 = Mistura&lt;/div&gt;&lt;div style=&quot;font-size: 17px;&quot;&gt;1 = Vapor&lt;/div&gt;&lt;div style=&quot;font-size: 17px;&quot;&gt;2 = Líquido&lt;/div&gt;" style="text;html=1;align=left;verticalAlign=middle;whiteSpace=wrap;rounded=0;fontFamily=Trebuchet MS;shadow=0;fontSize=17;fontStyle=1" vertex="1" parent="1">
          <mxGeometry x="910" y="493.5" width="110" height="90" as="geometry" />
        </mxCell>
        <mxCell id="nC10HTdiC2yC7m7H2YE5-29" value="&lt;div style=&quot;font-size: 18px;&quot;&gt;Amostras&lt;br style=&quot;font-size: 18px;&quot;&gt;Sintéticas&lt;/div&gt;" style="text;html=1;align=right;verticalAlign=middle;whiteSpace=wrap;rounded=0;fontFamily=Trebuchet MS;shadow=0;fontSize=18;fontStyle=1;fontColor=#0000CC;" vertex="1" parent="1">
          <mxGeometry x="325" y="670" width="105" height="60" as="geometry" />
        </mxCell>
        <mxCell id="nC10HTdiC2yC7m7H2YE5-30" value="&lt;div style=&quot;font-size: 18px;&quot;&gt;Tarefas&lt;/div&gt;" style="text;html=1;align=right;verticalAlign=middle;whiteSpace=wrap;rounded=0;fontFamily=Trebuchet MS;shadow=0;fontSize=18;fontStyle=1;fontColor=#0000CC;" vertex="1" parent="1">
          <mxGeometry x="915" y="583.5" width="105" height="30" as="geometry" />
        </mxCell>
        <mxCell id="nC10HTdiC2yC7m7H2YE5-31" value="&lt;div style=&quot;font-size: 17px;&quot;&gt;V&lt;br&gt;{y&lt;sub style=&quot;font-size: 17px;&quot;&gt;i&lt;/sub&gt;}&lt;sub style=&quot;font-size: 17px;&quot;&gt;i=1..24&lt;/sub&gt;&lt;br&gt;&lt;/div&gt;&lt;div style=&quot;font-size: 17px;&quot;&gt;{x&lt;sub style=&quot;font-size: 17px;&quot;&gt;i&lt;/sub&gt;}&lt;sub style=&quot;font-size: 17px;&quot;&gt;i=1..24&lt;/sub&gt;&lt;sub style=&quot;font-size: 17px;&quot;&gt;&lt;br&gt;&lt;/sub&gt;&lt;/div&gt;" style="text;html=1;align=left;verticalAlign=middle;whiteSpace=wrap;rounded=0;fontFamily=Trebuchet MS;shadow=0;fontSize=17;fontStyle=1" vertex="1" parent="1">
          <mxGeometry x="915" y="279" width="110" height="90" as="geometry" />
        </mxCell>
        <mxCell id="nC10HTdiC2yC7m7H2YE5-32" value="&lt;ul style=&quot;&quot;&gt;&lt;li style=&quot;&quot;&gt;&lt;span style=&quot;&quot;&gt;P : Pressão&lt;/span&gt;&lt;/li&gt;&lt;li style=&quot;&quot;&gt;&lt;span style=&quot;&quot;&gt;T : Temperatura&lt;/span&gt;&lt;/li&gt;&lt;li style=&quot;&quot;&gt;&lt;span style=&quot;&quot;&gt;z&lt;/span&gt;&lt;span style=&quot;&quot;&gt;&lt;sub&gt;i&lt;/sub&gt;&amp;nbsp;: &lt;/span&gt;&lt;font style=&quot;font-size: 16px;&quot;&gt;Composição total&lt;/font&gt;&lt;/li&gt;&lt;li&gt;&lt;span style=&quot;font-size: 16px;&quot;&gt;y&lt;/span&gt;&lt;sub&gt;i&lt;/sub&gt;&amp;nbsp;:&amp;nbsp;Composição do vapor&lt;/li&gt;&lt;li&gt;&lt;span style=&quot;font-size: 16px;&quot;&gt;x&lt;/span&gt;&lt;sub&gt;i&lt;/sub&gt;&amp;nbsp;:&amp;nbsp;Composição do líquido&lt;/li&gt;&lt;li&gt;V : Fração de vapor&lt;/li&gt;&lt;/ul&gt;" style="text;html=1;align=left;verticalAlign=middle;whiteSpace=wrap;rounded=0;fontFamily=Trebuchet MS;shadow=0;fontSize=16;fontStyle=1" vertex="1" parent="1">
          <mxGeometry x="760" y="90" width="280" height="160" as="geometry" />
        </mxCell>
      </root>
    </mxGraphModel>
  </diagram>
</mxfile>
